<?xml version="1.0" encoding="UTF-8"?>
<svg version="1.1" xmlns="http://www.w3.org/2000/svg" width="2816" height="1536">
<path d="M0 0 C2.17565231 2.08958255 2.90692978 3.47511748 3.43359375 6.4453125 C3.44536675 14.52159108 2.30807585 21.06519884 -3 27.37890625 C-17.09675752 41.08151102 -36.74043237 45.04723314 -55.18359375 49.5625 C-59.60067581 50.64578885 -63.99063079 51.79190745 -68.375 53 C-76.35211228 55.15915043 -84.40624249 56.97672494 -92.46435547 58.80664062 C-95.64477211 59.52988123 -98.82260816 60.26359503 -102 61 C-103.04687988 61.23662354 -104.09375977 61.47324707 -105.17236328 61.71704102 C-111.3280256 63.16449023 -116.85166003 64.97838455 -122.5 67.8125 C-123.58317505 68.3369873 -123.58317505 68.3369873 -124.68823242 68.87207031 C-128.92927337 70.93489756 -133.11994962 73.09053434 -137.3125 75.25 C-146.81937121 80.02421565 -156.87837437 82.64497113 -167.25 84.8125 C-168.42095215 85.06257813 -169.5919043 85.31265625 -170.79833984 85.5703125 C-178.2035227 87.11428695 -185.62629888 88.47651835 -193.0859375 89.73046875 C-193.95621582 89.8778096 -194.82649414 90.02515045 -195.72314453 90.17695618 C-200.01712623 90.90180322 -204.3127422 91.6096217 -208.61425781 92.28833008 C-225.55036593 95.04422567 -244.42438996 98.71760398 -255.62890625 112.9375 C-261.02936689 121.06126986 -264.07626176 129.4825582 -266 139 C-265.69449219 138.34515625 -265.38898438 137.6903125 -265.07421875 137.015625 C-258.45572991 123.81593458 -247.59525955 111.57676686 -233.5625 106.3125 C-226.21815046 103.95446035 -218.7070231 102.93264946 -211.08813477 101.87255859 C-196.08586202 99.71253184 -181.25686699 96.59096603 -166.39941406 93.61645508 C-130.51178809 86.44429491 -130.51178809 86.44429491 -120.375 86.6875 C-119.30958984 86.68266602 -119.30958984 86.68266602 -118.22265625 86.67773438 C-105.07048842 86.80997738 -94.83861591 93.3528461 -83.875 99.9375 C-77.81200259 103.55689563 -71.74315714 107.16083112 -65.62109375 110.6796875 C-64.56744629 111.2869165 -63.51379883 111.89414551 -62.42822266 112.51977539 C-60.41631627 113.67738616 -58.40183909 114.83054564 -56.38427734 115.97827148 C-47.13767656 121.31382943 -38.68049355 127.56355203 -30.375 134.25 C-24.40633799 139.01056765 -18.2408681 143.44198332 -11.94873047 147.76464844 C0.02733302 156.05466604 0.02733302 156.05466604 2 160 C2.4932343 163.02986784 2.51774713 165.11543571 0.94140625 167.80859375 C-3.38305472 173.25811773 -8.50394085 175.83464695 -15 178 C-34.55793866 179.55284136 -47.43017545 174.15285199 -63.6484375 163.68359375 C-68.26311743 160.75698027 -73.07746063 158.36173642 -78 156 C-78.89299805 155.56776123 -79.78599609 155.13552246 -80.70605469 154.69018555 C-84.54079452 152.83996744 -88.38284158 151.00577355 -92.23144531 149.18457031 C-96.66963943 147.08286697 -101.09266351 144.97731601 -105.44140625 142.6953125 C-106.09536377 142.36192871 -106.74932129 142.02854492 -107.4230957 141.68505859 C-109.10846512 140.82244134 -110.78144032 139.93572197 -112.453125 139.046875 C-121.06462526 136.50515466 -129.50271153 139.50420498 -137.6875 142.375 C-144.30005685 144.60084287 -150.73125135 146.52572657 -157.625 147.625 C-170.78923617 149.85713811 -181.80218497 154.92870086 -189.8125 165.875 C-196.40905506 175.91523229 -199.26094405 185.11059594 -197.7265625 197.14453125 C-195.66293972 206.7033877 -191.09760979 214.45953014 -183 220 C-174.49646749 225.4377428 -165.05924965 225.07927641 -155.4375 223 C-143.34340909 219.58557328 -131.62126178 214.61486996 -120.625 208.5625 C-100.13832892 197.32472509 -72.95258246 185.11717427 -49.0546875 191.98828125 C-45.90196561 193.14810946 -42.97539779 194.44663403 -40 196 C-38.2984375 196.8353125 -38.2984375 196.8353125 -36.5625 197.6875 C-31.59708697 202.16848249 -27.73996093 207.87470998 -27.25 214.6875 C-27.76250224 219.80434522 -30.29666071 222.59959173 -34 226 C-36.78787761 227.85624941 -39.70941963 229.26842687 -42.74609375 230.671875 C-44.00571678 231.27853249 -44.00571678 231.27853249 -45.29078674 231.89744568 C-47.99916337 233.19735974 -50.71793432 234.47368584 -53.4375 235.75 C-55.30869033 236.64337392 -57.17913128 237.5383191 -59.04882812 238.43481445 C-63.56756952 240.59730532 -68.09432331 242.74224512 -72.62518311 244.87921143 C-77.75687419 247.30109951 -82.87789948 249.74541057 -88 252.1875 C-88.88526367 252.60765381 -89.77052734 253.02780762 -90.68261719 253.46069336 C-97.66149193 256.78945927 -104.49477649 260.35680982 -111.296875 264.03125 C-114.46260771 265.7351306 -117.68336172 267.28323283 -120.9375 268.8125 C-137.67245006 277.12289812 -152.78526752 289.38930777 -167.72265625 300.51171875 C-195.29271373 321.02844593 -221.92044736 335.78775334 -255.6875 343.5 C-273.51583201 347.61102997 -290.79402132 354.0143758 -301.125 370 C-308.76250729 383.09930033 -314.34891849 397.64758649 -314 413 C-313.64808594 411.98421875 -313.29617188 410.9684375 -312.93359375 409.921875 C-308.13835559 396.40817185 -302.23242406 385.26820176 -292 375 C-291.38640625 374.36320312 -290.7728125 373.72640625 -290.140625 373.0703125 C-285.11549918 368.23846075 -275.27101959 361 -268 361 C-269.03247726 365.94664478 -270.19354526 370.79645496 -271.62109375 375.64453125 C-271.91693359 376.65322266 -272.21277344 377.66191406 -272.51757812 378.70117188 C-273.11886694 380.73483021 -273.7279232 382.76621233 -274.34570312 384.79492188 C-279.63438329 403.00128938 -280.48680026 420.99087725 -280.39111328 439.86083984 C-280.37511126 443.59900913 -280.39100647 447.33608318 -280.41015625 451.07421875 C-280.42452458 467.24444523 -279.26147093 482.99305426 -277 499 C-276.84310699 500.14060883 -276.84310699 500.14060883 -276.68304443 501.30426025 C-272.29295336 532.95784133 -264.23283066 563.01265342 -253.67443848 593.07556152 C-253.06311691 594.8199026 -252.45842103 596.5665622 -251.85449219 598.31347656 C-238.14744988 637.93642246 -219.83867137 676.13232497 -198.09912109 711.94775391 C-197.57785645 712.81319824 -197.0565918 713.67864258 -196.51953125 714.5703125 C-196.05651611 715.33102051 -195.59350098 716.09172852 -195.11645508 716.87548828 C-194.03758976 718.92847012 -193.45041087 720.73414119 -193 723 C-199.27700498 720.13680474 -203.92276821 716.45622037 -208.87109375 711.75 C-209.52166748 711.13667816 -210.17224121 710.52335632 -210.8425293 709.89144897 C-217.52554699 703.55991074 -224.06585161 697.08596157 -230.56445312 690.56591797 C-232.52358656 688.60134799 -234.48811644 686.64228552 -236.453125 684.68359375 C-242.51256305 678.62768851 -248.50529064 672.5815535 -254 666 C-254.90019232 664.95499691 -255.80120295 663.91069805 -256.703125 662.8671875 C-301.77325947 609.91669209 -335.85790539 549.85594322 -358 484 C-358.34788574 482.97406738 -358.69577148 481.94813477 -359.05419922 480.89111328 C-364.79080963 463.87125509 -369.16080876 446.53771399 -373 429 C-372.92497334 457.09748576 -366.26193247 485.30412519 -358 512 C-357.46802002 513.7320166 -357.46802002 513.7320166 -356.92529297 515.49902344 C-351.95917099 531.48086628 -346.04000403 546.82317973 -339 562 C-338.53722656 563.00772461 -338.07445312 564.01544922 -337.59765625 565.05371094 C-325.46220644 591.37185108 -311.313018 616.7224548 -294 640 C-293.25145752 641.00764404 -293.25145752 641.00764404 -292.48779297 642.03564453 C-282.93596708 654.83515005 -272.75247779 666.94736258 -262.015625 678.765625 C-260.12555342 680.86082063 -258.27787513 682.98618566 -256.4375 685.125 C-253.42404356 688.59082288 -250.21238152 691.80602275 -246.94140625 695.02734375 C-245.18210761 696.81496108 -243.55490464 698.64726126 -241.9375 700.5625 C-234.27561295 709.46017528 -225.72261251 717.89083911 -216.75390625 725.46484375 C-214.74166518 727.22611488 -212.87628014 729.09479839 -211 731 C-207.8501997 734.19261312 -204.58780511 737.17161279 -201.1875 740.09375 C-198.64488601 742.30945648 -196.16889802 744.59098592 -193.6875 746.875 C-189.21910216 750.95057165 -184.62727535 754.81278318 -179.91796875 758.60546875 C-177.86575535 760.28954749 -175.85522941 761.98641494 -173.86328125 763.73828125 C-163.34266005 772.9800587 -152.2737193 781.76927007 -140.4375 789.28125 C-139.633125 789.8484375 -138.82875 790.415625 -138 791 C-138 791.66 -138 792.32 -138 793 C-167.79989201 797.13234128 -193.15008986 786.63003411 -217 769 C-217.54237305 768.60490234 -218.08474609 768.20980469 -218.64355469 767.80273438 C-230.20321214 759.3390427 -241.32032272 750.01007064 -251.2890625 739.71484375 C-253.59260683 737.40604018 -256.04956743 735.3122206 -258.5546875 733.2265625 C-260 732 -260 732 -262 730 C-247.1748216 749.74503848 -230.90944257 769.17627861 -211 784 C-210.21278564 784.59385498 -210.21278564 784.59385498 -209.40966797 785.19970703 C-189.84009539 799.89802905 -170.19450156 809.99770826 -145 808 C-135.5115975 806.64868466 -126.56768907 803.5878834 -117.625 800.234375 C-106.94280214 796.59690245 -95.35421336 793.81541402 -84.05859375 793.94995117 C-83.39079895 793.95623032 -82.72300415 793.96250946 -82.03497314 793.96897888 C-80.59127726 793.9827678 -79.14760046 793.99868883 -77.70394897 794.01653099 C-75.39548994 794.04345879 -73.08713125 794.06115439 -70.77856445 794.07600403 C-64.21612735 794.11840978 -57.65387783 794.16510314 -51.09179688 794.24682617 C-32.7136677 794.46827144 -14.93014739 794.67589816 3 790 C4.24942383 789.67572021 5.49884766 789.35144043 6.78613281 789.01733398 C9.92964427 788.12780371 13.02483981 787.154383 16.125 786.125 C18.31879286 785.42379814 20.51280591 784.72328484 22.70703125 784.0234375 C23.76486816 783.68151367 24.82270508 783.33958984 25.91259766 782.98730469 C30.52725134 781.51160807 35.16802635 780.12833976 39.8125 778.75 C41.43369498 778.26466093 43.05479332 777.7789989 44.67578125 777.29296875 C47.25536435 776.52071549 49.83599632 775.75254509 52.41796875 774.98828125 C60.007103 772.70865537 67.4738677 770.12413598 74.93554688 767.46118164 C82.03186377 764.9393442 88.50120428 762.71263339 96.125 762.6875 C97.30320312 762.67074219 98.48140625 762.65398438 99.6953125 762.63671875 C104.49125198 763.16393195 106.99917056 764.97212111 110.3125 768.375 C113.50486895 775.23268145 113.02145202 783.03143335 110.5625 790.125 C102.02507035 808.57783041 82.33477807 819.67813742 64.1640625 826.90234375 C60.45753231 828.18818941 56.7137143 829.25355475 52.9375 830.3125 C40.02766396 833.95662994 25.7130626 838.35316283 16 848 C15.4328125 848.55300781 14.865625 849.10601563 14.28125 849.67578125 C9.37766207 854.90387132 5.703 861.79424997 5 869 C4.92523437 869.65871094 4.85046875 870.31742188 4.7734375 870.99609375 C3.99945744 883.40014256 9.81494562 896.84604225 17.8203125 906.10546875 C23.07465498 911.26990803 29.16652009 914.34243479 35.7421875 917.44921875 C40.0613302 919.50408361 44.28488088 921.71366516 48.5078125 923.95703125 C49.87406708 924.678611 51.24044226 925.39996245 52.60693359 926.12109375 C54.66090607 927.20515991 56.71270381 928.29244002 58.75811768 929.39257812 C69.91597349 935.38481743 80.35573591 939.01329264 93.0625 939.875 C102.58250034 940.65331808 111.84252881 942.35111728 121.18383789 944.32373047 C134.91215525 947.08488283 147.05064287 946.01839694 160.5625 942.8125 C161.97367715 942.48924855 163.38514004 942.16724213 164.796875 941.84643555 C168.8691035 940.91636949 172.93463102 939.95959873 177 939 C179.06111661 938.52048374 181.1223054 938.04127747 183.18359375 937.5625 C190.31472833 935.89296956 197.42545436 934.15406066 204.51953125 932.33374023 C237.87457988 923.82357905 237.87457988 923.82357905 252 931 C257.00544634 934.39992581 261.08321993 938.12986103 263 944 C263.50004199 946.97752278 263.4052123 948.91025624 263 952 C259.11872126 954.94351698 254.50640018 956.48206309 249.98046875 958.1796875 C249.2042366 958.47432892 248.42800446 958.76897034 247.62825012 959.07254028 C245.98426564 959.69510443 244.33936054 960.31524227 242.69360352 960.93310547 C240.2311815 961.85858274 237.77266967 962.79388751 235.31445312 963.73046875 C226.62344992 967.02189325 217.90721289 970.0561767 209.01733398 972.76220703 C204.6847365 974.08432889 200.38648383 975.503396 196.08984375 976.9375 C195.33859726 977.18823273 194.58735077 977.43896545 193.81333923 977.69729614 C191.52100471 978.46370988 189.2292327 979.23178881 186.9375 980 C185.40304326 980.51316578 183.86853813 981.02618691 182.33398438 981.5390625 C180.81510318 982.04687206 179.29622297 982.55468453 177.77734375 983.0625 C177.03959717 983.30909866 176.30185059 983.55569733 175.54174805 983.80976868 C171.93568489 985.01571926 168.33087258 986.22515849 164.72851562 987.44213867 C164.0511586 987.67010132 163.37380157 987.89806396 162.67591858 988.13293457 C160.84197087 988.75018188 159.00872726 989.36952008 157.17553711 989.98901367 C145.72662273 993.63397057 135.09994208 993.13488037 123.27734375 991.9765625 C120.96048737 991.75854603 118.64359117 991.5409524 116.32666016 991.32373047 C115.12068176 991.20946716 113.91470337 991.09520386 112.67218018 990.97747803 C93.35243138 989.15408576 74.07663299 987.58042494 54.68734741 986.77355957 C41.42887777 986.2166441 28.36060844 985.0696607 15.20605469 983.24365234 C12.70727424 982.92681363 12.70727424 982.92681363 9 983 C27.08892645 990.60038927 44.22714776 994.57957782 63.80444336 995.53808594 C74.46947411 996.11412375 85.07661549 997.4531685 95.6875 998.63574219 C99.46250933 999.05085966 103.23978512 999.43908668 107.01806641 999.82299805 C113.20825729 1000.45201993 119.34836972 1001.17501822 125.5 1002.125 C144.88932764 1004.86310253 162.34911523 998.69482986 180.65234375 992.71484375 C185.81767327 991.03693416 191.01681136 989.51360004 196.25 988.0625 C197.38538208 987.74539063 197.38538208 987.74539063 198.54370117 987.421875 C203.73608398 986 203.73608398 986 206 986 C206 986.66 206 987.32 206 988 C205.2678125 988.41507813 204.535625 988.83015625 203.78125 989.2578125 C193.78826013 994.94429959 183.8572353 1000.73532646 173.9296875 1006.53515625 C172.95950684 1007.10105469 171.98932617 1007.66695312 170.98974609 1008.25 C168.92667719 1009.45758435 166.86732068 1010.6715257 164.81103516 1011.890625 C154.9639386 1017.70652354 154.9639386 1017.70652354 149.625 1019.875 C148.68914063 1020.26429688 147.75328125 1020.65359375 146.7890625 1021.0546875 C141.42084621 1022.87416697 136.12049583 1023.17624133 130.4921875 1023.15234375 C129.72824677 1023.15040512 128.96430603 1023.14846649 128.17721558 1023.14646912 C115.48219784 1023.03576793 102.79980226 1022.23126708 90.125 1021.5625 C84.89858216 1021.2901018 79.67201324 1021.0208196 74.4453125 1020.75390625 C73.1625795 1020.68791733 71.8798465 1020.62192841 70.5582428 1020.55393982 C60.55259281 1020.05033797 50.5453537 1019.66808028 40.53115845 1019.38038635 C4.04363167 1018.23777901 -21.98952516 1005.38163099 -53.59375 987.95703125 C-65.12011777 981.61961709 -76.85090036 975.65671136 -88.5390625 969.625 C-159.66791307 932.89520425 -159.66791307 932.89520425 -187.2109375 910.45361328 C-189.13128328 908.89333234 -191.06477755 907.35037658 -193 905.80859375 C-207.26054601 894.40184758 -221.14471875 882.26264528 -233.01171875 868.328125 C-234.62045463 866.44441855 -236.24938545 864.58601786 -237.89453125 862.734375 C-256.40519758 841.80939571 -272.03938537 818.54726077 -287 795 C-287.52948242 794.16919922 -288.05896484 793.33839844 -288.60449219 792.48242188 C-323.47604037 737.57828219 -351.06586071 678.06285658 -372.07363892 616.57333374 C-373.49713073 612.4134844 -375.00335739 608.29037361 -376.53125 604.16796875 C-379.51447789 595.83171938 -381.71011417 587.32704827 -383.875 578.75 C-384.08965912 577.90573456 -384.30431824 577.06146912 -384.52548218 576.19161987 C-393.76746483 539.74483924 -400.45345774 502.98722615 -403.69140625 465.50097656 C-403.9774877 462.25540063 -404.29741924 459.01503575 -404.625 455.7734375 C-409.97670468 399.2130009 -408.53504511 334.75574323 -383 283 C-382.6086084 282.19949219 -382.2172168 281.39898438 -381.81396484 280.57421875 C-376.16702701 269.13355383 -369.80743197 258.26695223 -362.97045898 247.50097656 C-356.06654334 236.61053659 -349.57074477 225.49604929 -343.10594177 214.34158325 C-340.85738265 210.46415253 -338.58306356 206.60311681 -336.29296875 202.75 C-323.1451358 180.49681276 -311.58229097 157.37583717 -300.14941406 134.20556641 C-285.73787866 105.04036637 -270.22883233 90.47286367 -240.6875 76.5625 C-228.69723199 70.90596547 -217.13713768 64.92328281 -205.78738403 58.06692505 C-201.88355592 55.73665247 -197.8763252 53.59410006 -193.875 51.4375 C-188.03299061 48.25599676 -182.2479809 45.01627483 -176.5625 41.5625 C-174.73040352 40.45725009 -172.89792199 39.35264038 -171.06542969 38.24804688 C-169.5772295 37.348794 -168.09115666 36.44601715 -166.60644531 35.54101562 C-163.97716859 33.94684785 -161.33367654 32.37842669 -158.6875 30.8125 C-157.49846069 30.08172241 -157.49846069 30.08172241 -156.28540039 29.33618164 C-142.80863936 21.44209634 -127.28862884 18.05655492 -112.125 15 C-111.32061493 14.83457703 -110.51622986 14.66915405 -109.68746948 14.49871826 C-86.04805407 9.63808309 -62.30216299 5.13522638 -38.203125 3.43359375 C-32.69421222 3.02448515 -27.26955076 2.21611524 -21.8125 1.375 C-5.0253757 -1.1437683 -5.0253757 -1.1437683 0 0 Z " fill="#151B23" transform="translate(1191,364)"/>
<path d="M0 0 C0.96990561 -0.00532368 1.93981121 -0.01064735 2.93910789 -0.01613235 C8.06803972 -0.04266159 13.19694885 -0.06210402 18.32592773 -0.07666016 C22.5279719 -0.09000101 26.72953074 -0.11788709 30.93139648 -0.15869141 C36.05696131 -0.20842013 41.18208668 -0.23282745 46.30788231 -0.23988724 C48.2392682 -0.24652587 50.17064714 -0.26154986 52.10189247 -0.28577805 C68.17652889 -0.47604409 81.59951178 2.33086269 96.328125 8.91796875 C97.08286102 9.24475113 97.83759705 9.57153351 98.61520386 9.90821838 C100.2162986 10.60196892 101.81566028 11.29973229 103.41329956 12.00140381 C107.76075692 13.9076573 112.12534503 15.77404365 116.48828125 17.64453125 C117.38455734 18.0294574 118.28083344 18.41438354 119.20426941 18.81097412 C128.67728883 22.8708168 138.19995575 26.80253229 147.76171875 30.6484375 C148.58793732 30.98106598 149.41415588 31.31369446 150.26541138 31.65640259 C162.50596999 36.56272672 174.86264155 40.89814263 187.40988159 44.9463501 C201.41282704 49.47603061 214.13290945 54.44181998 225.32421875 64.2734375 C225.84580566 64.6864209 226.36739258 65.0994043 226.90478516 65.52490234 C231.66448709 69.37587439 235.09109599 73.63762931 238.57421875 78.6484375 C239.1350415 79.44008301 239.69586426 80.23172852 240.27368164 81.04736328 C241.96888714 83.44812525 243.64948808 85.85835794 245.32421875 88.2734375 C245.79907715 88.95792969 246.27393555 89.64242187 246.76318359 90.34765625 C249.00396582 93.58640676 251.23129359 96.83416557 253.453125 100.0859375 C268.75926799 122.45851472 284.76251175 144.32010663 300.8984375 166.09765625 C307.97790749 175.66256508 314.94223185 185.29540822 321.76171875 195.04736328 C323.41944501 197.40910516 325.08974761 199.76160533 326.76171875 202.11328125 C342.39399126 224.15631238 356.70375046 245.78542292 363.32421875 272.2734375 C363.50823242 272.98773926 363.69224609 273.70204102 363.88183594 274.43798828 C365.14323788 279.35921697 366.36314705 284.28374987 367.32421875 289.2734375 C367.59455933 290.64544312 367.59455933 290.64544312 367.87036133 292.04516602 C369.89262749 303.90918763 369.67352089 315.83593496 369.63671875 327.8359375 C369.63589294 328.96639496 369.63506714 330.09685242 369.63421631 331.26156616 C369.60472423 348.78994998 368.85960089 365.91124265 366.32421875 383.2734375 C366.09545044 384.91155396 366.09545044 384.91155396 365.86206055 386.58276367 C362.62016312 409.69204854 358.59272776 432.35474938 352.76171875 454.9609375 C352.53042267 455.86033051 352.29912659 456.75972351 352.06082153 457.68637085 C349.13755684 468.98932458 345.95114293 480.17624605 342.32421875 491.2734375 C342.10802887 491.93715363 341.89183899 492.60086975 341.6690979 493.28469849 C325.13097242 543.89053119 303.2447913 592.15705228 275.12011719 637.36572266 C273.23828253 640.41257567 271.41147237 643.48662171 269.60400391 646.57788086 C251.72460878 677.10171308 229.34238219 705.68263931 205.5546875 731.796875 C204.31339564 733.17512201 203.07904024 734.56003604 201.87329102 735.96948242 C196.8136521 741.8663117 191.39086571 747.35526239 185.88671875 752.8359375 C184.98373047 753.74279297 184.08074219 754.64964844 183.15039062 755.58398438 C178.03748115 760.68948921 172.84355996 765.61065599 167.32421875 770.2734375 C166.6897583 770.81460205 166.05529785 771.3557666 165.40161133 771.91333008 C155.49994404 780.31078927 145.28661247 788.1455618 134.671875 795.6171875 C132.26646731 797.31418061 129.87305778 799.02717968 127.48046875 800.7421875 C115.73562051 809.11677494 103.66238623 816.80769556 91.32421875 824.2734375 C88.50987575 825.98242848 85.69628681 827.69265553 82.8828125 829.40307617 C80.96655943 830.56798206 79.04989157 831.73220591 77.1328125 832.89575195 C69.0350521 837.8185745 60.99689244 842.83350307 52.96923828 847.86962891 C46.24324878 852.08590439 39.48539888 856.24438636 32.69140625 860.35009766 C29.1349439 862.51087403 25.62686831 864.71702393 22.17578125 867.04296875 C4.9954934 878.60615826 -13.27501366 886.7206933 -33.20605469 892.25341797 C-45.55629993 895.71638079 -57.45739347 900.18024985 -69.42578125 904.7734375 C-71.4060284 905.52792563 -73.38649632 906.28183457 -75.3671875 907.03515625 C-85.47474245 910.86568747 -85.47474245 910.86568747 -95.53710938 914.8125 C-108.03085141 919.78320856 -119.12915622 921.76720896 -132.55078125 921.5859375 C-134.00740496 921.57591566 -135.46402932 921.56598825 -136.9206543 921.55615234 C-168.45838242 921.24063702 -168.45838242 921.24063702 -175.67578125 917.2734375 C-168.01802694 914.26416025 -160.32612786 911.45986323 -152.49609375 908.9296875 C-151.85751434 908.72233978 -151.21893494 908.51499207 -150.56100464 908.30136108 C-147.35869666 907.26196169 -144.15396513 906.23505018 -140.94091797 905.22900391 C-132.03177051 902.34701278 -123.95545583 898.62971723 -115.67248535 894.30682373 C-112.43309556 892.63029049 -109.15892468 891.02530756 -105.88671875 889.4140625 C-93.50141681 883.27933877 -81.13735295 877.1176362 -68.98828125 870.5234375 C-68.1051123 870.04680664 -67.22194336 869.57017578 -66.31201172 869.07910156 C-65.50006348 868.63276367 -64.68811523 868.18642578 -63.8515625 867.7265625 C-63.15973877 867.34661133 -62.46791504 866.96666016 -61.75512695 866.57519531 C-59.22967216 864.99415446 -56.97246763 863.16768412 -54.67578125 861.2734375 C-66.52794333 864.22285181 -77.56712073 868.02860796 -88.70471191 873.03256226 C-91.92681554 874.47927321 -95.16163094 875.89649802 -98.39587402 877.31581116 C-99.98962498 878.01547105 -101.58281705 878.71640556 -103.17541504 879.41868591 C-116.0445973 885.09245217 -128.8560621 890.29324898 -142.4140625 894.06640625 C-146.95607047 895.33210826 -151.43785466 896.76697182 -155.92578125 898.2109375 C-161.47771223 899.98952665 -167.03962554 901.67349574 -172.66015625 903.22167969 C-186.83515595 907.13221902 -200.72994556 911.87299386 -214.66015625 916.56640625 C-215.73703201 916.92861519 -215.73703201 916.92861519 -216.83566284 917.29814148 C-219.75085624 918.28005165 -222.66271991 919.26885196 -225.56518555 920.2878418 C-231.08745329 922.21288385 -235.86701595 923.2346001 -241.67578125 922.2734375 C-244.77378106 920.08216934 -245.47930237 918.86287414 -246.67578125 915.2734375 C-247.57845064 907.07542365 -245.94083547 900.94920809 -241.23828125 894.21484375 C-230.08922803 880.46613148 -213.04505049 874.2414255 -197.09976196 867.86776733 C-194.62770722 866.87921309 -192.15868611 865.88337946 -189.69018555 864.88598633 C-182.95875111 862.17006338 -176.22428039 859.46662887 -169.4453125 856.87109375 C-158.24941017 852.57449959 -147.99938404 847.36721635 -137.67578125 841.2734375 C-135.84639797 840.20305013 -134.01696895 839.13274093 -132.1875 838.0625 C-128.40575291 835.84394435 -124.63496898 833.60810432 -120.87109375 831.359375 C-117.78130557 829.51447426 -114.6812282 827.69859359 -111.54296875 825.9375 C-96.67812633 817.51318699 -84.02471503 805.98621409 -71.67578125 794.2734375 C-70.55429688 793.24863281 -70.55429688 793.24863281 -69.41015625 792.203125 C-58.3998229 781.82315425 -51.7634157 768.07785369 -51.18554688 752.90527344 C-51.12539527 740.15914938 -54.81305239 732.3544639 -63.640625 723.24609375 C-73.91582162 713.58319935 -86.15079571 707.43044592 -98.69311523 701.29638672 C-105.7981189 697.79219522 -112.31325359 694.02320699 -118.67578125 689.2734375 C-119.54074219 688.64050781 -120.40570312 688.00757813 -121.296875 687.35546875 C-131.7868426 679.35626971 -141.49117533 669.05447367 -145.67578125 656.2734375 C-146.47628409 648.39872356 -146.74546082 641.61053696 -141.67578125 635.2734375 C-137.64937545 631.607467 -134.32073665 631.66709242 -129.04296875 631.81005859 C-122.90122239 632.65526122 -117.69301001 635.37276982 -112.17578125 638.0859375 C-109.61896333 639.29740359 -107.05382303 640.49073447 -104.48828125 641.68359375 C-103.84032593 641.98711761 -103.19237061 642.29064148 -102.52478027 642.60336304 C-95.85401132 645.70625617 -89.04461859 648.38752236 -82.17578125 651.0234375 C-73.87318119 654.21342024 -65.68026706 657.54088356 -57.55078125 661.1484375 C-48.45291559 665.13157403 -39.35238748 668.06151412 -29.67578125 670.2734375 C-29.01787598 670.43038086 -28.3599707 670.58732422 -27.68212891 670.74902344 C-14.80884071 673.73832631 -1.78692645 673.84294088 11.37304688 674.19384766 C33.14329875 674.78096729 52.13079273 680.28236672 72.41925049 687.72894287 C86.93133821 693.09170513 86.93133821 693.09170513 102.19921875 694.7109375 C103.3579248 694.69740234 103.3579248 694.69740234 104.54003906 694.68359375 C121.78073282 694.16873272 136.97165089 685.13167478 148.74853516 672.96337891 C159.98935299 660.90745374 169.06937542 648.07511476 176.32421875 633.2734375 C175.79054688 633.86769531 175.256875 634.46195313 174.70703125 635.07421875 C173.12670502 636.83226333 171.54451774 638.58863595 169.9609375 640.34375 C168.22745778 642.26983858 166.50067526 644.20197962 164.78125 646.140625 C159.90373045 651.60042208 154.99839531 656.6511066 149.32421875 661.2734375 C148.31875 662.12808594 147.31328125 662.98273437 146.27734375 663.86328125 C133.6275293 674.40327105 121.23369162 681.49804462 104.51171875 681.3359375 C103.62806641 681.33142578 102.74441406 681.32691406 101.83398438 681.32226562 C99.66403316 681.31053616 97.49411703 681.29260245 95.32421875 681.2734375 C96.764288 677.95698434 98.54877073 675.83626326 101.140625 673.33203125 C101.90012451 672.58969238 102.65962402 671.84735352 103.44213867 671.08251953 C104.2488501 670.29989746 105.05556152 669.51727539 105.88671875 668.7109375 C112.49097719 662.19125799 118.72102536 655.68718658 124.32421875 648.2734375 C125.40205378 646.88519149 126.48020858 645.49719371 127.55859375 644.109375 C162.61489548 598.57495557 189.37967395 547.83788991 207.32421875 493.2734375 C207.84806639 491.69371436 208.37274216 490.11426548 208.8984375 488.53515625 C209.13812256 487.81416748 209.37780762 487.09317871 209.62475586 486.3503418 C210.29493938 484.36037628 210.98778207 482.37955754 211.68359375 480.3984375 C215.25249476 469.96498842 217.75286873 459.36490456 220.01171875 448.5859375 C220.1559729 447.89781982 220.30022705 447.20970215 220.44885254 446.50073242 C221.43600144 441.76388475 222.38736559 437.02045971 223.32421875 432.2734375 C223.45949982 431.5952597 223.59478088 430.91708191 223.73416138 430.21835327 C225.75035656 420.06751591 227.16794295 409.93922373 228.22851562 399.64257812 C228.40157227 398.0734668 228.40157227 398.0734668 228.578125 396.47265625 C228.67424072 395.54283936 228.77035645 394.61302246 228.86938477 393.6550293 C229.32421875 391.2734375 229.32421875 391.2734375 231.32421875 388.2734375 C234.98173857 396.46067622 237.72208897 404.57767337 239.88671875 413.2734375 C240.33494995 415.04545532 240.33494995 415.04545532 240.79223633 416.85327148 C244.40447981 431.33068827 247.17170349 445.85262568 249.51171875 460.5859375 C249.67889404 461.62306885 249.84606934 462.6602002 250.01831055 463.72875977 C252.426289 479.45815637 252.56493741 495.20964822 252.57421875 511.0859375 C252.57489349 512.12801361 252.57556824 513.17008972 252.57626343 514.2437439 C252.55996237 530.12264743 252.0492986 545.59386685 249.32421875 561.2734375 C249.13666016 562.36865723 248.94910156 563.46387695 248.75585938 564.59228516 C246.47894156 577.61087594 243.82863229 590.52765544 240.32421875 603.2734375 C240.15486816 603.9034668 239.98551758 604.53349609 239.81103516 605.18261719 C233.72877455 627.66175546 224.98458717 649.12182824 215.32421875 670.2734375 C239.47894402 634.17570839 257.36408914 594.08267772 264.01171875 550.8984375 C264.1718898 549.86363251 264.1718898 549.86363251 264.33529663 548.80792236 C266.35045526 535.62675634 267.216905 522.60418991 267.32421875 509.2734375 C267.35273926 507.45102539 267.35273926 507.45102539 267.38183594 505.59179688 C267.96327153 467.86520568 262.16030585 430.6661388 251.18359375 394.54003906 C250.14890564 391.12969435 249.1656128 387.72434412 248.3203125 384.26171875 C245.51915353 372.82122368 241.92504121 361.6900744 238.19921875 350.5234375 C237.9334201 349.7244101 237.66762146 348.92538269 237.39376831 348.10214233 C236.62221053 345.78800384 235.84550145 343.47567319 235.06640625 341.1640625 C234.8352562 340.47300919 234.60410614 339.78195587 234.36595154 339.06996155 C232.88288175 334.70408007 231.18796404 330.49135131 229.32421875 326.2734375 C247.50204866 331.1863645 259.58257691 345.24133991 268.83398438 360.81494141 C280.40703928 381.11925597 288.3079079 402.48577415 293.32421875 425.2734375 C290.78313297 392.42895557 282.30941338 348.84267007 256.6484375 325.87890625 C243.03200571 315.06314784 227.36802976 308.97959689 210.5032959 305.40081787 C180.10423207 298.89086206 153.65073988 286.891789 127.32421875 270.2734375 C106.692871 257.30334523 86.62198322 245.45160406 63.52832031 237.39306641 C60.20062593 236.2302497 56.88290987 235.04199519 53.56640625 233.84765625 C46.49250041 231.30359322 39.40877647 228.78765216 32.32421875 226.2734375 C23.99625838 223.31372422 15.67076104 220.34733813 7.35253906 217.36035156 C5.45154813 216.67805459 3.54994578 215.99745622 1.64746094 215.31933594 C-0.58838864 214.52062527 -2.82022294 213.71178435 -5.05078125 212.8984375 C-6.79488281 212.26808594 -6.79488281 212.26808594 -8.57421875 211.625 C-13.2943503 209.56811648 -18.35491938 207.04409801 -20.67578125 202.2734375 C-21.77641298 196.20773374 -20.49982682 191.5926012 -17.2890625 186.41015625 C-10.56517017 177.50466205 -1.50562548 172.98276684 9.32421875 171.2734375 C13.20364127 170.98013473 17.05984068 170.93923684 20.94921875 170.9609375 C22.54080811 170.96939697 22.54080811 170.96939697 24.16455078 170.97802734 C43.33151649 171.27281393 60.46441232 177.90466491 78.07421875 184.8984375 C102.17412025 194.51433179 102.17412025 194.51433179 127.34375 191.3046875 C137.71979904 185.90177439 143.25380066 179.3200679 147.32421875 168.2734375 C149.69372835 155.40068167 146.27673324 145.00302373 139.32421875 134.2734375 C138.53337891 133.02240234 138.53337891 133.02240234 137.7265625 131.74609375 C129.58622746 120.89925345 115.03386162 118.06309968 102.44921875 116.0859375 C99.62600726 115.60942383 96.80531481 115.11866233 93.984375 114.62890625 C93.30811569 114.51373657 92.63185638 114.39856689 91.93510437 114.27990723 C86.83967061 113.40143704 81.87044074 112.2632432 76.88671875 110.8984375 C66.34256218 108.15357557 66.34256218 108.15357557 56.37719727 111.8918457 C53.72923034 113.49809184 51.13008089 115.17477421 48.53271484 116.86132812 C44.52065867 119.42663134 40.41514075 121.83674689 36.32421875 124.2734375 C34.61307218 125.30303803 32.90213214 126.33298189 31.19140625 127.36328125 C28.2112056 129.1529168 25.22045975 130.91928951 22.20703125 132.65234375 C15.8270315 136.34581325 9.9677711 140.21980831 4.26171875 144.8984375 C-2.24160881 150.2303353 -8.97183888 153.89865815 -16.67578125 157.2734375 C-17.42085937 157.655 -18.1659375 158.0365625 -18.93359375 158.4296875 C-23.24611454 159.75661697 -27.50150019 159.68275814 -31.98828125 159.7109375 C-32.90029297 159.74380859 -33.81230469 159.77667969 -34.75195312 159.81054688 C-42.7891496 159.87392262 -47.43415693 157.2778698 -53.23828125 151.8984375 C-54.67578125 149.2734375 -54.67578125 149.2734375 -54.86328125 145.9609375 C-52.53580043 138.73349705 -46.67256831 134.10090974 -41.0234375 129.30078125 C-38.11898485 126.79261 -35.30269118 124.19390742 -32.48828125 121.5859375 C-31.93317871 121.07337402 -31.37807617 120.56081055 -30.80615234 120.03271484 C-27.9918301 117.43122018 -25.18977842 114.81801953 -22.40625 112.18359375 C-12.66162185 102.99832492 -2.53278723 94.93562705 8.81665039 87.8034668 C13.55256275 84.81520023 18.13642836 81.64402153 22.69921875 78.3984375 C23.4070752 77.89594482 24.11493164 77.39345215 24.84423828 76.87573242 C26.28109879 75.85538866 27.71778448 74.83479865 29.15429688 73.81396484 C32.74324683 71.2660042 36.33931896 68.72913714 39.94921875 66.2109375 C40.58778809 65.75799316 41.22635742 65.30504883 41.88427734 64.83837891 C49.31824157 59.67552306 55.50286613 57.74236692 64.51171875 57.8359375 C65.52766113 57.84061035 66.54360352 57.8452832 67.59033203 57.85009766 C81.03086271 58.09353533 94.37223609 59.82805166 107.69981384 61.46977234 C113.89519997 62.23227404 120.09739558 62.92268263 126.30453491 63.58248901 C130.29938636 64.01518391 134.24623528 64.55255125 138.19921875 65.2734375 C142.61775679 66.06901914 147.00309355 66.53626774 151.47119141 66.92089844 C173.73896403 68.86739666 191.74666889 74.50386119 206.6328125 91.984375 C208.25088524 94.04847584 209.81864701 96.12640737 211.32421875 98.2734375 C205.69362018 82.76222123 197.08702412 71.03045281 182.13525391 63.625 C174.50437662 60.17100312 166.57319101 59.24854554 158.32421875 58.2734375 C156.60021184 58.05246202 154.87625523 57.83109379 153.15234375 57.609375 C135.68425425 55.44021411 118.14488085 53.83811427 100.62866211 52.11425781 C90.03140546 51.06808581 79.45307069 49.97272 68.88671875 48.6484375 C47.17467744 45.99220675 25.21325573 44.86379485 3.375 43.74609375 C2.59046951 43.70504013 1.80593903 43.66398651 0.99763489 43.62168884 C-2.6416675 43.43183398 -6.28073658 43.25189103 -9.92163086 43.09545898 C-22.38161987 42.47388446 -36.18121004 41.70299257 -47.30078125 35.5234375 C-47.96045898 35.17345703 -48.62013672 34.82347656 -49.29980469 34.46289062 C-56.90587635 30.27557591 -63.09005271 24.82623192 -65.67578125 16.2734375 C-66.17625637 12.85266425 -66.45806913 9.65568216 -65.67578125 6.2734375 C-63.5545455 3.59693527 -62.35772081 2.40679102 -58.96533203 1.7434082 C-57.43368408 1.72153442 -57.43368408 1.72153442 -55.87109375 1.69921875 C-54.72898437 1.67150391 -53.586875 1.64378906 -52.41015625 1.61523438 C-51.2190625 1.60556641 -50.02796875 1.59589844 -48.80078125 1.5859375 C-46.47000352 1.54291979 -44.13927167 1.49734101 -41.80859375 1.44921875 C-40.26002686 1.43242065 -40.26002686 1.43242065 -38.68017578 1.4152832 C-35.28106472 1.33621615 -31.91064638 1.055071 -28.5222168 0.77954102 C-19.02142042 0.08206067 -9.52282981 0.04950861 0 0 Z " fill="#151B23" transform="translate(1660.67578125,475.7265625)"/>
<path d="M0 0 C1.27488281 0.31195313 2.54976562 0.62390625 3.86328125 0.9453125 C7.12869462 1.75234093 10.38926994 2.5754881 13.64892578 3.40527344 C16.36696733 4.09282787 19.08759005 4.76957676 21.80859375 5.4453125 C39.55074794 9.85396053 39.55074794 9.85396053 47.9375 12.125 C59.74076226 15.29583252 71.6522875 17.93335943 83.59350586 20.52197266 C122.8563052 29.03580673 160.34149867 40.35756714 197 57 C197.94198242 57.42506836 198.88396484 57.85013672 199.85449219 58.28808594 C215.15891951 65.24178984 229.62930255 73.29400007 244 82 C244.93150879 82.56009766 245.86301758 83.12019531 246.82275391 83.69726562 C264.35408108 94.2576333 280.85397581 105.90185925 297.00830078 118.45361328 C298.88533455 119.91097193 300.76822316 121.36041703 302.65234375 122.80859375 C321.48946967 137.35870398 338.72058531 153.64970887 355.5625 170.4375 C356.49070557 171.36103271 357.41891113 172.28456543 358.37524414 173.23608398 C363.45861806 178.33144808 368.31882883 183.535121 373 189 C374.45445517 190.60768373 375.91220895 192.21239715 377.375 193.8125 C381.21806298 198.07610017 384.89322734 202.44552273 388.5 206.91015625 C390.32003572 209.15960665 392.15218882 211.39473792 394 213.62109375 C401.52623363 222.72503876 408.54358615 232.10484952 415.37939453 241.73535156 C416.97194831 243.96080032 418.58830403 246.16648766 420.21484375 248.3671875 C428.71327657 259.89690846 436.44895808 271.83230556 444 284 C444.49773926 284.79970215 444.99547852 285.5994043 445.50830078 286.42333984 C455.29667954 302.18146238 464.88136974 318.05843512 472.92822266 334.78710938 C474.09456916 337.19525623 475.28712761 339.58949732 476.48046875 341.984375 C495.06268057 379.60892311 510.01704295 420.24199606 520 461 C520.25463013 462.03906494 520.25463013 462.03906494 520.5144043 463.09912109 C527.19495434 490.4513952 533.44101572 517.91068418 536 546 C536.20706886 548.0417953 536.41517771 550.08348582 536.625 552.125 C536.810625 554.043125 536.810625 554.043125 537 556 C532.88362689 552.30911738 530.05272539 547.87291838 527 543.3125 C525.83432917 541.59047132 524.66764178 539.86913037 523.5 538.1484375 C522.91347656 537.2831543 522.32695313 536.41787109 521.72265625 535.52636719 C506.75228989 513.57152718 490.923826 492.1590831 474.9375 470.9375 C465.17369812 457.95918412 455.68377531 444.78335482 446.57958984 431.33349609 C445.4364303 429.64472964 444.29057761 427.95778519 443.14306641 426.27197266 C434.80308745 414.0034622 426.84883671 401.65418069 419.55664062 388.73730469 C416.3563814 383.10974721 413.08385797 377.52392797 409.8125 371.9375 C409.45071655 371.31959595 409.08893311 370.70169189 408.71618652 370.06506348 C401.01064851 356.91921552 393.07428343 343.92298885 385 331 C384.38495605 330.01354492 383.76991211 329.02708984 383.13623047 328.01074219 C375.46131955 315.72842415 367.52564694 303.7082741 359 292 C358.42185547 291.20400391 357.84371094 290.40800781 357.24804688 289.58789062 C345.04069434 272.81094089 333.31129513 258.0210592 316.78173828 245.3671875 C315.12714888 244.0975656 313.48185786 242.81707096 311.83984375 241.53125 C308.58025241 238.99280718 305.29984123 236.48575611 302 234 C301.0107251 233.25363281 301.0107251 233.25363281 300.00146484 232.4921875 C289.15598501 224.35870366 277.96659986 217.14897471 266.25585938 210.32861328 C264.29209859 209.17203469 262.35222972 207.98851419 260.421875 206.77734375 C219.51876056 180.57061673 219.51876056 180.57061673 174 172 C165.90569671 175.18246312 159.58151761 180.91727682 153.05859375 186.515625 C135.39909463 200.85973923 113.29095182 208.57543551 91.625 214.4375 C54.04420554 224.65799114 19.46744882 243.82327215 -9.79443359 269.52905273 C-14.24414276 273.41882613 -18.84642448 277.06345335 -23.5625 280.625 C-24.22975098 281.13426025 -24.89700195 281.64352051 -25.58447266 282.16821289 C-30.8195327 286.07752827 -35.21950839 288.59743192 -42.01171875 288.3671875 C-45.59420743 287.70558841 -47.84164171 285.77960681 -50 283 C-55.99285599 272.23966432 -56.48688702 261.00673822 -53.15625 249.1953125 C-44.72951066 225.90790445 -26.71525636 211.43431014 -7.12548828 197.51757812 C-2.34580454 194.10493005 2.33937403 190.57336756 7 187 C7.97839844 186.27425781 8.95679688 185.54851562 9.96484375 184.80078125 C19.62736394 177.36907109 24.98735835 169.10911669 27 157 C28.3759981 144.36120261 24.96331056 133.34168087 17.140625 123.375 C14.07836019 119.97745072 10.90456023 117.36733179 7 115 C6.38640625 114.62359375 5.7728125 114.2471875 5.140625 113.859375 C-6.8884693 107.19863683 -21.52864998 105.91076172 -34.6875 109.5625 C-44.19778211 112.88818147 -52.02069647 117.84068066 -59.33203125 124.69921875 C-62.84124545 127.72546643 -66.57776289 130.34953511 -70.375 133 C-71.11427734 133.51820313 -71.85355469 134.03640625 -72.61523438 134.5703125 C-75.8353186 136.81953136 -79.06526217 139.04960071 -82.33203125 141.23046875 C-93.16376393 148.65413232 -96.93652153 157.57504285 -101.15527344 169.61181641 C-102.06382574 172.18044607 -103.00155406 174.73707163 -103.9453125 177.29296875 C-111.58447599 197.89617024 -111.58447599 197.89617024 -117.83642578 218.9465332 C-121.43717482 232.74550445 -126.54125544 246.37750199 -138.68359375 254.87890625 C-146.14784922 259.15127558 -153.4755608 260.41707817 -162 259 C-164.37890625 257.78515625 -164.37890625 257.78515625 -166 256 C-168.09340766 246.20878621 -164.5327935 234.64545552 -162.59570312 224.98339844 C-161.23173006 218.17371202 -159.98427509 211.4819992 -159.40156555 204.56388855 C-158.43171822 193.31239174 -156.08608417 182.6150843 -153.3125 171.6875 C-152.86233556 169.88032256 -152.4123042 168.07311197 -151.96240234 166.26586914 C-144.62420637 137.04518466 -137.71363142 118.12901811 -113.6875 98.6875 C-108.52357064 94.49994384 -103.63913192 90.07102551 -98.76953125 85.55078125 C-96.54772682 83.5044649 -94.29966262 81.51935577 -92 79.5625 C-83.11563448 71.82569836 -75.08337057 63.41671617 -68 54 C-68.6909375 54.55429688 -69.381875 55.10859375 -70.09375 55.6796875 C-79.32243243 63.04774848 -88.6366291 70.30763484 -98.01660156 77.48193359 C-99.475164 78.59829761 -100.93269655 79.71600755 -102.38964844 80.83447266 C-105.07041665 82.89207542 -107.75334933 84.94681171 -110.4375 87 C-111.34346924 87.69319336 -112.24943848 88.38638672 -113.18286133 89.10058594 C-118.29737704 92.99639222 -123.4696609 96.77100687 -128.75 100.4375 C-137.61411702 106.6744577 -144.20897547 114.09530743 -150.76538086 122.62036133 C-159.07057336 133.36390847 -168.53579977 143.19293068 -178.82421875 152.04296875 C-182.25232989 155.1264224 -185.44651476 158.43719206 -188.68359375 161.71875 C-190.46810412 163.47617674 -192.22695644 165.07747761 -194.1875 166.625 C-196.49172599 168.57079084 -198.16353136 170.32771111 -200.0625 172.625 C-209.73199837 183.870584 -222.9157889 194.36784681 -238.0078125 196.40625 C-246.52267482 196.66233608 -252.94697344 194.88114219 -260 190 C-262.26117481 187.49294051 -262.98498226 186.66078057 -263.0625 183.25 C-260.63122054 175.81314517 -254.81295214 170.74014626 -249.33984375 165.39453125 C-246.15923903 162.13958852 -243.35904502 158.63524151 -240.515625 155.0859375 C-237.58427954 151.49003236 -234.55180947 147.99362285 -231.5 144.5 C-227.78825851 140.25034805 -224.14249568 135.97596156 -220.625 131.5625 C-216.78093655 126.80182992 -212.64586515 122.37309424 -208.4375 117.9375 C-203.70578892 112.9492993 -199.17088591 107.93333771 -194.953125 102.49609375 C-190.80244106 97.19151968 -186.42623193 92.07559441 -182 87 C-181.34386719 86.24460937 -180.68773437 85.48921875 -180.01171875 84.7109375 C-171.40890656 75.46337493 -159.8057171 69.82697798 -148.8125 63.9375 C-123.26796838 50.22393134 -99.17157951 34.70116167 -75.04296875 18.66015625 C-62.82926084 10.54619824 -62.82926084 10.54619824 -57.07421875 6.8046875 C-56.03998779 6.13034668 -55.00575684 5.45600586 -53.94018555 4.76123047 C-49.18212534 1.9110564 -44.22611593 -0.17354539 -39 -2 C-38.31808594 -2.24492187 -37.63617187 -2.48984375 -36.93359375 -2.7421875 C-24.61673978 -6.49638516 -12.04883588 -3.03018237 0 0 Z " fill="#151B23" transform="translate(1488,147)"/>
<path d="M0 0 C2.28515625 1.9375 2.28515625 1.9375 2.84375 5.45703125 C2.83211992 6.88854277 2.78982185 8.32001774 2.72265625 9.75 C2.70307861 10.51916748 2.68350098 11.28833496 2.66333008 12.08081055 C2.46974794 17.6923671 1.80520854 23.1627037 0.921875 28.70703125 C0.05586568 34.26518646 -0.58814051 39.84798458 -1.21484375 45.4375 C-1.34624756 46.60909668 -1.47765137 47.78069336 -1.61303711 48.98779297 C-2.37224912 56.24227474 -2.87654013 63.46019637 -3.17578125 70.74609375 C-3.21185486 71.58488068 -3.24792847 72.4236676 -3.28509521 73.28787231 C-3.45992107 77.42606277 -3.60888394 81.56265366 -3.71679688 85.703125 C-4.16956969 99.18433684 -7.70437156 109.7357556 -15.27734375 121 C-16.33932732 122.63015224 -17.39915445 124.26171096 -18.45703125 125.89453125 C-18.99553711 126.72162598 -19.53404297 127.5487207 -20.08886719 128.40087891 C-22.78552237 132.60782294 -25.34513927 136.89482962 -27.90234375 141.1875 C-28.40596436 142.03159424 -28.90958496 142.87568848 -29.4284668 143.74536133 C-30.40817707 145.38846214 -31.38728312 147.03192341 -32.36572266 148.67578125 C-33.56328842 150.68342678 -34.76737767 152.68683887 -35.9765625 154.6875 C-39.4142163 160.37906858 -42.81030682 166.09005526 -46.13671875 171.84765625 C-46.74725098 172.90243164 -47.3577832 173.95720703 -47.98681641 175.04394531 C-49.1884574 177.12299005 -50.38628726 179.20424404 -51.57958984 181.28808594 C-57.0375588 190.72898157 -62.6403001 199.52560887 -70.71484375 206.9375 C-53.60560402 199.33339345 -44.95990311 185.61591547 -36.375 169.77734375 C-28.19912732 154.75925138 -18.90453558 140.34775516 -9.71484375 125.9375 C-8.94505972 124.72672317 -8.17550653 123.51579954 -7.40625 122.3046875 C-5.84462299 119.84756009 -4.28110396 117.39167532 -2.71484375 114.9375 C3.8182152 122.37167053 5.18733511 129.72978099 4.7890625 139.27734375 C3.42148914 155.53701821 -6.50226778 171.25721466 -13.4519043 185.73413086 C-17.18470153 193.51588832 -20.80142565 201.27756043 -23.96484375 209.3125 C-27.97198692 219.39293332 -33.72813819 228.46071755 -39.37744141 237.68603516 C-40.97681314 240.37851527 -42.38083717 243.10566148 -43.71484375 245.9375 C-33.82707108 239.38845577 -28.24323462 230.76266583 -22.96484375 220.3125 C-22.45679199 219.32266113 -21.94874023 218.33282227 -21.42529297 217.31298828 C-13.80927396 202.37559661 -6.65704705 187.19863047 0.28515625 171.9375 C0.94515625 171.9375 1.60515625 171.9375 2.28515625 171.9375 C5.04894076 177.34991133 5.61240248 182.28027056 5.66015625 188.3125 C5.68045898 189.35458618 5.68045898 189.35458618 5.70117188 190.41772461 C5.61025991 201.3082201 0.72778089 210.90015421 -3.71484375 220.625 C-4.29609565 221.90778826 -4.87714742 223.19066722 -5.45800781 224.47363281 C-10.31918307 235.181003 -15.27729126 245.84237447 -20.46679688 256.39501953 C-21.27987247 258.05139067 -22.08621598 259.71108882 -22.88476562 261.37451172 C-27.88449083 271.75738993 -33.39270044 279.94530951 -41.71484375 287.9375 C-42.39675781 288.61554688 -43.07867188 289.29359375 -43.78125 289.9921875 C-50.66702619 296.48718578 -58.62473666 301.76597028 -66.32421875 307.23632812 C-70.1125927 309.93213998 -73.88307567 312.65256649 -77.65234375 315.375 C-78.39226562 315.90899414 -79.1321875 316.44298828 -79.89453125 316.99316406 C-87.74350946 322.66601985 -95.53510594 328.41609676 -103.32373047 334.17138672 C-106.49519957 336.51388289 -109.66941098 338.85264446 -112.84399414 341.19091797 C-114.42036298 342.35221368 -115.99637417 343.51399504 -117.57202148 344.67626953 C-121.62351117 347.66431124 -125.68024395 350.64480243 -129.74609375 353.61328125 C-138.2671271 359.84408953 -146.62445773 366.15293067 -154.71484375 372.9375 C-156.3783235 374.27480725 -158.04415304 375.60921234 -159.71484375 376.9375 C-159.49828125 376.12667969 -159.28171875 375.31585937 -159.05859375 374.48046875 C-156.37599721 363.81217973 -154.95703244 354.19278236 -159.71484375 343.9375 C-160.99556746 341.9034094 -162.31772101 339.89347184 -163.71484375 337.9375 C-164.04484375 336.9475 -164.37484375 335.9575 -164.71484375 334.9375 C-166.5455905 333.81596644 -166.5455905 333.81596644 -168.71484375 332.9375 C-169.38644531 332.59589844 -170.05804687 332.25429687 -170.75 331.90234375 C-171.41902344 331.56332031 -172.08804687 331.22429687 -172.77734375 330.875 C-173.44894531 330.53339844 -174.12054687 330.19179687 -174.8125 329.83984375 C-189.09668026 323.06439069 -207.73129166 332.13617015 -221.54815674 337.02536011 C-234.71773685 341.67562131 -247.88303509 345.86168046 -261.41992188 349.32275391 C-264.32458819 350.10083367 -267.17966929 351.00650123 -270.04418945 351.91943359 C-292.0915406 358.85017985 -315.78706436 361.32706354 -338.71484375 357.9375 C-332.29623743 351.30494014 -325.3829914 345.22975585 -318.15234375 339.5 C-304.76479289 328.57907244 -295.81458004 314.53853865 -288.71484375 298.9375 C-288.40933594 298.27878906 -288.10382813 297.62007812 -287.7890625 296.94140625 C-283.19530494 285.9870613 -282.30290425 273.82227331 -282.17608643 262.10055542 C-282.13532263 258.60141836 -282.04415222 255.10360591 -281.953125 251.60546875 C-281.9359845 250.92881668 -281.91884399 250.25216461 -281.90118408 249.55500793 C-281.68887097 241.91332631 -280.94190428 234.4822641 -279.71484375 226.9375 C-279.5446875 225.80570313 -279.37453125 224.67390625 -279.19921875 223.5078125 C-277.14806276 211.70051712 -273.32192875 200.34651603 -269.67431641 188.95507812 C-268.87774137 186.44981922 -268.10660155 183.93983432 -267.3515625 181.421875 C-262.84688174 166.76105918 -256.3763812 152.79430703 -250.3359375 138.71923828 C-243.82204575 123.53134166 -238.49866266 108.31422896 -233.78417969 92.47021484 C-232.66318171 88.76682653 -231.49726198 85.07912729 -230.31640625 81.39453125 C-225.8282225 67.34280002 -221.61112971 53.7871385 -220.24609375 39.0390625 C-220.16609131 38.19166504 -220.08608887 37.34426758 -220.00366211 36.47119141 C-219.85815666 34.84222099 -219.72991529 33.21156647 -219.62329102 31.57958984 C-219.06598247 24.77910742 -216.96116631 18.76770011 -211.96484375 13.9375 C-208.00038609 11.49783375 -205.18097871 10.98272557 -200.71484375 11.9375 C-192.73306532 14.51984008 -188.54375489 18.58599062 -184.71484375 25.9375 C-174.87808878 45.61100994 -175.64712027 69.68506702 -181.09423828 90.45751953 C-182.32505634 95.37594983 -183.31443793 100.34800249 -184.33984375 105.3125 C-184.54569092 106.28695068 -184.75153809 107.26140137 -184.96362305 108.26538086 C-187.14962078 118.72080705 -189.06164987 128.84928943 -188.96484375 139.5625 C-188.97257812 140.42617188 -188.9803125 141.28984375 -188.98828125 142.1796875 C-188.96219747 150.89166882 -188.13618055 160.75182282 -182.71484375 167.9375 C-175.57134022 174.03328968 -166.88087388 176.51272999 -157.65234375 176.4375 C-156.82452393 176.43177979 -155.9967041 176.42605957 -155.14379883 176.42016602 C-146.97819822 176.18690802 -140.23643694 174.18963009 -132.71484375 170.9375 C-131.06355469 170.24527344 -131.06355469 170.24527344 -129.37890625 169.5390625 C-113.20850891 162.11349542 -95.53327411 150.44016356 -84.96484375 135.9375 C-84.12339307 134.80297853 -83.27952377 133.67024799 -82.43359375 132.5390625 C-81.9953125 131.95157227 -81.55703125 131.36408203 -81.10546875 130.75878906 C-78.64665444 127.53850207 -76.0445203 124.43608192 -73.46484375 121.3125 C-68.52582188 115.28856356 -63.78502069 109.13751257 -59.15234375 102.875 C-58.27690918 101.69719971 -58.27690918 101.69719971 -57.38378906 100.49560547 C-50.33251186 90.88191142 -46.90545539 82.41360998 -45.40234375 70.5625 C-37.75857995 14.8622939 -37.75857995 14.8622939 -21.21484375 1.9375 C-14.23274141 -2.44769568 -7.6444082 -2.99176839 0 0 Z " fill="#151B23" transform="translate(1474.71484375,784.0625)"/>
<path d="M0 0 C7.72437644 6.5079392 13.21364958 15.17163355 14.18359375 25.3203125 C14.22322655 26.73399279 14.24472721 28.14827409 14.25 29.5625 C14.25459229 30.30588623 14.25918457 31.04927246 14.26391602 31.81518555 C14.1429182 37.88796765 12.62701432 42.60419199 9.80859375 48.01953125 C8.64403674 50.8464363 8.88617629 51.60805718 9.8125 54.4375 C11.13769828 56.89942391 12.50059846 59.29219472 13.9375 61.6875 C14.37562012 62.42492432 14.81374023 63.16234863 15.26513672 63.92211914 C20.32254587 72.3797809 25.58017433 80.71352688 30.8203125 89.05859375 C34.85706151 95.49420613 38.83887995 101.96277701 42.8125 108.4375 C49.79892918 119.81361 56.85638644 131.14377692 63.94482422 142.45654297 C67.11166068 147.51106234 70.27514795 152.56767399 73.4375 157.625 C74.06148682 158.62289551 74.68547363 159.62079102 75.32836914 160.64892578 C79.87403042 167.92364825 84.39318564 175.21444721 88.90332031 182.51123047 C94.86996647 192.15845842 100.88798109 201.77347169 106.90527344 211.38916016 C110.04291563 216.40408596 113.17757133 221.42087765 116.3125 226.4375 C117.56248537 228.43750915 118.81248537 230.43750914 120.0625 232.4375 C122.5625 236.4375 125.0625 240.4375 127.5625 244.4375 C128.18116943 245.42733887 128.79983887 246.41717773 129.43725586 247.43701172 C130.68818669 249.43856619 131.93900035 251.44019389 133.18969727 253.44189453 C136.29950269 258.41871596 139.41128331 263.39427968 142.52734375 268.3671875 C149.68079038 279.78865691 156.77995222 291.24158432 163.83178711 302.72607422 C168.29222041 309.98422378 172.7888544 317.21859992 177.3125 324.4375 C183.92423314 334.98993771 190.45798042 345.58905104 196.9765625 356.19921875 C200.92781491 362.62959194 204.90019161 369.04671644 208.87719727 375.46118164 C212.53422442 381.36314996 216.17267504 387.27632314 219.80566406 393.19311523 C226.57318977 404.21230144 233.39958074 415.18948533 240.33300781 426.10498047 C241.94205654 428.64175465 243.54579731 431.18182882 245.1484375 433.72265625 C245.69854492 434.5947876 246.24865234 435.46691895 246.81542969 436.36547852 C247.87089327 438.03906503 248.92623811 439.71272644 249.98144531 441.38647461 C250.69059082 442.51001343 250.69059082 442.51001343 251.4140625 443.65625 C252.03788818 444.6452832 252.03788818 444.6452832 252.67431641 445.65429688 C253.7002891 447.26169811 254.75472895 448.85084342 255.8125 450.4375 C258.75679649 450.87619534 258.75679649 450.87619534 262.1875 450.875 C275.67852571 451.59378416 284.88152269 456.06271879 294.0625 465.75 C302.08253694 475.3329969 302.82725061 484.02520358 302.04003906 496.23193359 C300.95598673 506.73979712 294.9226295 515.49152028 286.87109375 522.0546875 C277.17451345 528.56813992 267.31475359 530.37082572 255.8125 529.4375 C245.04311441 526.99308693 236.02549733 520.57228526 229.8125 511.4375 C229.1525 509.4575 228.4925 507.4775 227.8125 505.4375 C173.6925 505.4375 119.5725 505.4375 63.8125 505.4375 C63.1525 497.8475 62.4925 490.2575 61.8125 482.4375 C61.4825 479.7975 61.1525 477.1575 60.8125 474.4375 C115.5925 474.1075 170.3725 473.7775 226.8125 473.4375 C229.334297 468.80253286 229.334297 468.80253286 227.68530273 465.6328125 C227.04536377 464.61960937 226.4054248 463.60640625 225.74609375 462.5625 C225.40138535 462.00532288 225.05667694 461.44814575 224.70152283 460.87408447 C223.56789126 459.05069545 222.40934893 457.24462439 221.25 455.4375 C220.45546808 454.1700256 219.66267603 452.90145896 218.87158203 451.63183594 C217.2780178 449.07994019 215.67502476 446.5344066 214.06298828 443.99414062 C211.58136452 440.08066525 209.15082384 436.13670026 206.7253418 432.18823242 C199.79122403 420.91244765 192.74169693 409.70701301 185.71972656 398.48583984 C181.95590047 392.47007786 178.19592367 386.45190893 174.43579102 380.43383789 C171.32579371 375.45679057 168.21387241 370.48096883 165.09765625 365.5078125 C157.87399487 353.97403632 150.70900603 342.40632157 143.58886719 330.80834961 C139.16862495 323.61707201 134.69451732 316.462972 130.17236328 309.33544922 C126.57686466 303.66352281 123.02888511 297.96358532 119.5 292.25 C112.94509328 281.63776249 106.33653646 271.05956285 99.71972656 260.48583984 C95.95816523 254.47369765 92.20064683 248.45902792 88.44238281 242.44482422 C85.2936647 237.40638249 82.14394665 232.36857133 78.9921875 227.33203125 C71.42607576 215.2388465 63.89110674 203.12708604 56.39208984 190.9921875 C54.82155746 188.45214872 53.24903276 185.91335537 51.67578125 183.375 C46.42429251 174.90093309 41.18455145 166.41992003 35.96557617 157.92578125 C30.07764205 148.34291507 24.1623533 138.7789414 18.1875 129.25 C12.71068655 120.51317854 7.31539756 111.73041869 1.96728516 102.91430664 C-2.13650701 96.15260281 -6.27386537 89.41252071 -10.4375 82.6875 C-10.98680176 81.79973877 -11.53610352 80.91197754 -12.10205078 79.99731445 C-14.09488127 76.78291873 -16.0893897 73.58466545 -18.1875 70.4375 C-21.30360554 69.85157366 -21.30360554 69.85157366 -24.8125 69.75 C-26.00101563 69.68425781 -27.18953125 69.61851562 -28.4140625 69.55078125 C-29.32929687 69.51339844 -30.24453125 69.47601562 -31.1875 69.4375 C-31.44619873 70.14132812 -31.70489746 70.84515625 -31.97143555 71.5703125 C-33.29152302 74.68276127 -34.88197816 77.4274463 -36.64453125 80.3125 C-36.9836705 80.86981308 -37.32280975 81.42712616 -37.67222595 82.00132751 C-38.77773298 83.81570497 -39.88873161 85.62664657 -41 87.4375 C-41.77336806 88.70370105 -42.54647749 89.9700601 -43.31933594 91.23657227 C-49.37995418 101.15867014 -55.48904415 111.05084483 -61.62695312 120.92529297 C-64.31920629 125.25934883 -67.00281353 129.59875461 -69.6875 133.9375 C-70.77079414 135.68752426 -71.85412742 137.4375243 -72.9375 139.1875 C-73.47375 140.05375 -74.01 140.92 -74.5625 141.8125 C-80.52083333 151.4375 -86.47916667 161.0625 -92.4375 170.6875 C-92.97383057 171.55391113 -93.51016113 172.42032227 -94.06274414 173.31298828 C-95.14515159 175.06143007 -96.22767097 176.80980257 -97.31030273 178.55810547 C-100.03372817 182.95638226 -102.7551444 187.35587913 -105.47265625 191.7578125 C-111.11533815 200.89378318 -116.79306112 210.00531909 -122.53637695 219.07836914 C-131.91854168 233.90539048 -141.19438327 248.79739509 -150.375 263.75 C-155.42513724 271.97468192 -160.51455555 280.17096312 -165.68261719 288.32202148 C-174.981219 302.98845252 -184.14716967 317.73844262 -193.27758789 332.51000977 C-200.50811854 344.20092556 -207.81104947 355.84668838 -215.10351562 367.49902344 C-222.18742146 378.81952465 -229.25752757 390.14790425 -236.27612305 401.5090332 C-240.36705426 408.12618455 -244.49338062 414.72069874 -248.625 421.3125 C-254.27760739 430.33431274 -259.85115488 439.40115455 -265.35717773 448.51318359 C-265.88899658 449.39184082 -266.42081543 450.27049805 -266.96875 451.17578125 C-267.48566406 452.03510254 -268.00257812 452.89442383 -268.53515625 453.77978516 C-269.71039412 455.67009831 -270.93185958 457.5320072 -272.18359375 459.37255859 C-272.83457031 460.33629395 -273.48554687 461.3000293 -274.15625 462.29296875 C-274.75888672 463.15946045 -275.36152344 464.02595215 -275.98242188 464.91870117 C-277.43028049 467.94494861 -277.23942467 469.30255955 -276.1875 472.4375 C-274.08080541 474.54419459 -269.47493711 473.69642489 -266.55859375 473.75390625 C-265.26224754 473.7850779 -265.26224754 473.7850779 -263.93971252 473.81687927 C-261.16822555 473.88247114 -258.39664079 473.94130418 -255.625 474 C-253.75064077 474.04317608 -251.87629157 474.08679006 -250.00195312 474.13085938 C-245.39723664 474.23816227 -240.79242142 474.33940215 -236.1875 474.4375 C-237.24536609 479.40301049 -238.35042197 484.29320314 -239.9140625 489.12890625 C-240.19330566 489.99974854 -240.47254883 490.87059082 -240.76025391 491.76782227 C-241.10749512 492.83444092 -241.45473633 493.90105957 -241.8125 495 C-242.92625 498.444375 -244.04 501.88875 -245.1875 505.4375 C-255.4175 505.4375 -265.6475 505.4375 -276.1875 505.4375 C-276.8475 507.4175 -277.5075 509.3975 -278.1875 511.4375 C-284.22103912 520.55829395 -293.55341292 526.78636157 -304.2578125 529.1015625 C-315.46761222 530.38695287 -325.02133559 529.31503111 -334.4375 522.6875 C-343.11963607 515.56779333 -349.45052652 506.75414541 -351.1875 495.4375 C-352.14584023 484.47157414 -350.0085943 474.95372574 -342.93359375 466.34375 C-336.4020826 459.2131517 -329.77029136 453.78045362 -320.1875 451.4375 C-318.20751007 451.51083296 -316.22704889 451.58586511 -314.25 451.71630859 C-310.66931176 451.88330565 -307.52037181 451.87750151 -304.1875 450.4375 C-299.44845629 446.09607911 -296.70196453 439.91972758 -293.74755859 434.30859375 C-291.05221421 429.34814774 -287.96936655 424.63426614 -284.9375 419.875 C-278.2402771 409.18183922 -271.63284849 398.43353948 -265.02734375 387.68359375 C-257.61781833 375.62582236 -250.16865806 363.59325302 -242.65380859 351.60083008 C-237.04192738 342.64470521 -231.47820872 333.66358939 -226 324.625 C-220.85836286 316.14401539 -215.61948238 307.73266743 -210.3046875 299.359375 C-204.85692259 290.77310969 -199.49078856 282.13538158 -194.10644531 273.50927734 C-192.22701993 270.50076206 -190.34452804 267.49419021 -188.4609375 264.48828125 C-181.24067535 252.96132944 -174.08003513 241.39985339 -166.96386719 229.80834961 C-162.54362495 222.61707201 -158.06951732 215.462972 -153.54736328 208.33544922 C-149.95186466 202.66352281 -146.40388511 196.96358532 -142.875 191.25 C-138.20852376 183.69508636 -133.52098167 176.15381217 -128.8125 168.625 C-128.18553223 167.62235107 -127.55856445 166.61970215 -126.91259766 165.58666992 C-123.76544086 160.55516406 -120.61596657 155.52511656 -117.46484375 150.49609375 C-110.31672881 139.08186496 -103.22233965 127.63652017 -96.17480469 116.15991211 C-91.03775766 107.80127415 -85.85075139 99.47492439 -80.64306641 91.16015625 C-75.89905826 83.58388559 -71.18440614 75.98987419 -66.4855957 68.38549805 C-65.992771 67.58797119 -65.49994629 66.79044434 -64.9921875 65.96875 C-64.52514404 65.21021729 -64.05810059 64.45168457 -63.5769043 63.67016602 C-62.63548449 62.15737668 -61.68074654 60.65280885 -60.71411133 59.15600586 C-60.25544678 58.44323486 -59.79678223 57.73046387 -59.32421875 56.99609375 C-58.70873169 56.05334595 -58.70873169 56.05334595 -58.08081055 55.09155273 C-57.00241785 53.39313994 -57.00241785 53.39313994 -57.125 51 C-58.07226984 48.54110831 -58.07226984 48.54110831 -59.1640625 46.80078125 C-63.72346037 38.45281896 -64.01995813 27.48250298 -61.64404297 18.34814453 C-57.9898101 7.92136505 -50.53678369 0.07829812 -40.875 -5.0625 C-27.02675096 -10.69568605 -11.87627247 -8.65830044 0 0 Z " fill="#151B23" transform="translate(1432.1875,474.5625)"/>
<path d="M0 0 C0.27972656 0.90621094 0.55945312 1.81242188 0.84765625 2.74609375 C4.6145915 14.19224747 9.72384193 21.23831671 19 29 C19 29.66 19 30.32 19 31 C7.99328758 36.36473263 -3.12842802 41.40820113 -14.375 46.25 C-67.1708111 68.73180012 -67.1708111 68.73180012 -117 97 C-117.93908203 97.60908203 -118.87816406 98.21816406 -119.84570312 98.84570312 C-141.23191865 112.76937776 -161.67509953 127.65264115 -181.3828125 143.8515625 C-184.12140325 146.09965939 -186.8682055 148.3367594 -189.625 150.5625 C-190.85089844 151.55443359 -190.85089844 151.55443359 -192.1015625 152.56640625 C-194 154 -194 154 -195 154 C-195.09796875 152.94941406 -195.1959375 151.89882813 -195.296875 150.81640625 C-196.10446726 142.95221894 -196.94243526 135.94726952 -201 129 C-201.8971875 127.453125 -201.8971875 127.453125 -202.8125 125.875 C-205.57307449 122.24681638 -208.69883228 119.13425475 -212 116 C-208.18210357 112.04419476 -204.14797831 108.51818685 -199.875 105.0625 C-199.18269287 104.50183838 -198.49038574 103.94117676 -197.77709961 103.36352539 C-189.3893608 96.63075807 -180.71692685 90.29688338 -172 84 C-171.28730957 83.48050781 -170.57461914 82.96101563 -169.84033203 82.42578125 C-152.57780963 69.85359082 -134.31795486 58.91064542 -115.68359375 48.50488281 C-113.02965013 47.01662695 -110.39008416 45.50485794 -107.75 43.9921875 C-29.90053402 0 -29.90053402 0 0 0 Z " fill="#151B23" transform="translate(1227,170)"/>
<path d="M0 0 C4.99261556 4.99261556 6.41622411 9.56651433 6.4375 16.5 C6.43224135 24.21356646 4.75319442 30.19234416 1 37 C0.5771875 37.77601563 0.154375 38.55203125 -0.28125 39.3515625 C-14.17778423 62.21620894 -42.23299899 75.17106104 -67.25 81.625 C-75.96795797 84.25422542 -83.35715244 89.33245682 -91.01269531 94.13427734 C-96.02579975 97.26521426 -101.07751376 100.33273156 -106.12896729 103.40124512 C-107.33613808 104.13464894 -108.54296531 104.86861858 -109.74945068 105.60314941 C-119.15803472 111.33027927 -128.65638387 116.87807389 -138.24609375 122.296875 C-142.07146943 124.4606926 -145.85969761 126.6801318 -149.63574219 128.92871094 C-156.16473952 132.81595231 -162.74846671 136.58162659 -169.4375 140.1875 C-170.16614258 140.58670654 -170.89478516 140.98591309 -171.64550781 141.3972168 C-173.39788847 142.3286151 -175.19583724 143.1733577 -177 144 C-177.66 143.67 -178.32 143.34 -179 143 C-178.31035156 142.26136719 -177.62070312 141.52273438 -176.91015625 140.76171875 C-171.47151857 134.9024022 -166.26106306 128.94556319 -161.24609375 122.71484375 C-158.11715179 118.93290521 -154.78482555 115.3524413 -151.4609375 111.7421875 C-149.08960105 109.09984117 -146.84747003 106.39305833 -144.625 103.625 C-131.29311156 87.1823376 -116.70389068 73.58903134 -99 62 C-96.58074641 60.39971801 -94.16548254 58.79346594 -91.75 57.1875 C-91.14526855 56.78756836 -90.54053711 56.38763672 -89.91748047 55.97558594 C-84.62322302 52.45887234 -79.43867261 48.7950124 -74.25 45.125 C-66.15012161 39.4079397 -57.87551864 34.04994131 -49.46484375 28.8046875 C-43.50083553 25.07925986 -37.66811664 21.16404106 -31.83691406 17.23535156 C-29.91262477 15.94123888 -27.98433134 14.65330127 -26.0546875 13.3671875 C-25.40201904 12.93212891 -24.74935059 12.49707031 -24.0769043 12.04882812 C-22.79292018 11.1944447 -21.50795236 10.34153742 -20.22192383 9.49023438 C-17.53894602 7.71133836 -14.88479527 5.91726355 -12.26953125 4.0390625 C-4.86503918 -1.24454491 -4.86503918 -1.24454491 0 0 Z " fill="#151B23" transform="translate(1115,296)"/>
<path d="M0 0 C-4.18197752 4.62307859 -8.88375678 7.70353449 -14.1875 10.9375 C-15.10023682 11.49816162 -16.01297363 12.05882324 -16.95336914 12.63647461 C-27.34209892 18.93534572 -38.05955715 24.610212 -48.79296875 30.29345703 C-53.86200347 32.99081944 -58.90026771 35.74382786 -63.9375 38.5 C-64.79400146 38.96801025 -65.65050293 39.43602051 -66.53295898 39.91821289 C-68.18611218 40.82156557 -69.83774672 41.72770339 -71.48779297 42.63671875 C-73.22040149 43.5769409 -74.96517087 44.4949772 -76.71923828 45.39453125 C-86.83652306 50.65984797 -94.59258365 57.39882541 -102.3053894 65.67892456 C-115.57880167 79.91400787 -127.54571532 89.019985 -146 96 C-147.74024006 96.71976841 -149.47984841 97.44106645 -151.21875 98.1640625 C-162.73692931 102.73250248 -176.13625998 104.34432017 -188.125 100.4375 C-194.47680188 97.67202318 -199.20566405 93.66431701 -203.0625 87.9375 C-204.20727952 84.35052416 -204.1262638 82.59111982 -203 79 C-200.83258338 77.44166309 -199.09624481 76.4847543 -196.6875 75.4375 C-195.98874756 75.11072266 -195.28999512 74.78394531 -194.57006836 74.44726562 C-192.96315695 73.6993757 -191.35116375 72.96234715 -189.73535156 72.23388672 C-185.65427981 70.39296056 -181.59783905 68.49960545 -177.53759766 66.61328125 C-175.18432883 65.52079843 -172.82979641 64.43103408 -170.47412109 63.34375 C-158.91441237 58.0033222 -147.46281893 52.44728292 -136.0158844 46.87017822 C-135.33388474 46.53790222 -134.65188507 46.20562622 -133.94921875 45.86328125 C-132.93594765 45.36945953 -132.93594765 45.36945953 -131.90220642 44.86566162 C-126.53562112 42.25325745 -121.15009721 39.68177915 -115.76049805 37.1171875 C-106.47396225 32.69771333 -97.27800748 28.17929287 -88.27197266 23.20751953 C-79.45176001 18.41777562 -70.24801746 16.24151909 -60.5 14.0625 C-58.17835821 13.53397368 -55.85674362 13.00532783 -53.53515625 12.4765625 C-50.49488272 11.78890759 -47.45435149 11.10241565 -44.41357422 10.41699219 C-35.80931339 8.47072488 -27.32336452 6.31615122 -18.88061523 3.74975586 C-5.42819426 -0.33926214 -5.42819426 -0.33926214 0 0 Z " fill="#151B23" transform="translate(1405,162)"/>
<path d="M0 0 C5.37736497 0.69385354 7.80635202 3.05978968 11.875 6.5 C14.1152002 8.32472631 16.37022643 10.13083038 18.625 11.9375 C19.25801025 12.44700195 19.89102051 12.95650391 20.54321289 13.48144531 C29.15038359 20.37723038 38.02788298 26.91731293 46.875 33.5 C56.04586785 40.32998674 65.14847996 47.23219119 74.15136719 54.28271484 C78.46210067 57.65111492 82.81358428 60.95005612 87.2199707 64.19213867 C93.88252528 69.09991339 100.05949703 74.23703234 106.078125 79.9140625 C109.64067236 83.20792612 113.39267126 86.22215917 117.171875 89.26171875 C119.93315825 91.54815705 122.56038222 93.93608218 125.1875 96.375 C130.00715239 100.82551716 135.05538196 104.87571023 140.28051758 108.83349609 C143.0154081 110.9264099 144.94550754 112.6057613 146.875 115.5 C138.32013023 113.52401892 130.07470512 111.02683407 121.8125 108.0625 C120.60368164 107.62929443 119.39486328 107.19608887 118.14941406 106.74975586 C102.89676166 101.21007776 88.21568033 94.38846909 73.515625 87.5390625 C60.25421482 81.37268958 46.95453397 75.96845278 33.12890625 71.2109375 C25.92730136 68.63001552 20.58015569 65.58147379 14.875 60.5 C14.05257813 59.80777344 13.23015625 59.11554688 12.3828125 58.40234375 C3.01575875 50.3307336 -3.58105623 42.0346265 -8.125 30.5 C-8.558125 29.530625 -8.99125 28.56125 -9.4375 27.5625 C-11.35568655 19.01785083 -10.65371748 12.12206843 -6.4140625 4.4609375 C-4.42319558 1.43240662 -3.66983722 0.58717396 0 0 Z " fill="#151B23" transform="translate(1705.125,397.5)"/>
<path d="M0 0 C5.41003464 0.22081774 8.48860988 1.39025408 12.421875 5.1640625 C18.64621243 12.40524714 18.90993066 20.86829432 18.22314453 30.01611328 C16.5125515 45.22429598 7.8607881 59.36850479 -3.6328125 69.1484375 C-8.43226435 73.3200011 -12.94431598 77.75276279 -17.4375 82.25 C-18.27933838 83.09191895 -19.12117676 83.93383789 -19.98852539 84.80126953 C-24.94504307 89.80356043 -29.57583427 94.84192631 -33.90234375 100.3984375 C-36.88411562 104.09650094 -40.12702053 107.53342048 -43.40209961 110.97216797 C-46.49364801 114.25262351 -49.34857317 117.65828107 -52.1640625 121.1796875 C-56.76899125 126.85041109 -61.73176131 132.03791204 -66.91357422 137.17431641 C-68.40189061 138.65169295 -69.87893387 140.13976385 -71.35546875 141.62890625 C-72.30664939 142.57876861 -73.25844845 143.52801218 -74.2109375 144.4765625 C-75.48396729 145.7462085 -75.48396729 145.7462085 -76.78271484 147.04150391 C-79 149 -79 149 -82 150 C-80.53425335 141.6425129 -77.37951175 134.13333053 -74.0625 126.375 C-73.77410248 125.69491882 -73.48570496 125.01483765 -73.18856812 124.31414795 C-69.38405042 115.34717141 -65.47393373 106.43305021 -61.3125 97.625 C-60.92263916 96.79145996 -60.53277832 95.95791992 -60.13110352 95.09912109 C-52.83362277 79.97794871 -43.50951214 66.01878033 -34.13278198 52.1338501 C-23.87257713 36.93559806 -13.77612461 21.67681462 -4.27319336 5.99072266 C-2.94365858 3.91190644 -1.50398328 1.95537034 0 0 Z " fill="#151B23" transform="translate(996,297)"/>
<path d="M0 0 C0.495 0.99 0.495 0.99 1 2 C-0.1796544 4.82185749 -1.43088245 7.55600659 -2.75 10.3125 C-6.58361733 18.5909349 -10.02857662 26.96525134 -13.25 35.5 C-13.93412964 37.31189819 -13.93412964 37.31189819 -14.63208008 39.16040039 C-17.22506988 46.07374905 -19.72360179 53.01717931 -22.16796875 59.984375 C-28.47010487 77.91299265 -35.30034117 95.06744753 -44 112 C-45.1111113 114.19411037 -46.21865501 116.39000392 -47.32633972 118.58584595 C-56.02612151 135.81763748 -64.94450266 152.86770363 -74.61376953 169.57861328 C-76.3809679 172.66545256 -78.08523324 175.78446916 -79.78833008 178.90698242 C-84.76623633 188.019269 -90.16045184 196.83404095 -95.6640625 205.63671875 C-99.08667789 211.11754215 -102.42878318 216.64477378 -105.75 222.1875 C-106.26353027 223.04327637 -106.77706055 223.89905273 -107.30615234 224.78076172 C-109.75758831 228.83262381 -109.75758831 228.83262381 -112 233 C-112.66 232.67 -113.32 232.34 -114 232 C-109.54523013 214.80737252 -104.61456812 197.84946881 -99 181 C-98.72220703 180.1534082 -98.44441406 179.30681641 -98.15820312 178.43457031 C-83.79508176 134.80088254 -62.69539074 94.20082958 -39 55 C-38.51934082 54.20094238 -38.03868164 53.40188477 -37.54345703 52.57861328 C-26.41471899 34.1346578 -13.84735174 16.50000787 0 0 Z " fill="#151B23" transform="translate(921,381)"/>
<path d="M0 0 C0.9237442 0.00141495 1.8474884 0.0028299 2.79922485 0.00428772 C5.73337112 0.00986016 8.66743951 0.02240756 11.6015625 0.03515625 C13.59765514 0.04017481 15.59374899 0.0447371 17.58984375 0.04882812 C22.46877975 0.05982056 27.34765795 0.07706615 32.2265625 0.09765625 C30.0101871 2.31403165 28.46755947 2.91849446 25.5546875 4.015625 C24.10956787 4.56150269 24.10956787 4.56150269 22.63525391 5.1184082 C21.59288574 5.50343506 20.55051758 5.88846191 19.4765625 6.28515625 C18.40196777 6.68371826 17.32737305 7.08228027 16.22021484 7.49291992 C2.08277108 12.68121044 -12.05689231 17.46873043 -26.81054688 20.54907227 C-44.41333828 24.29141329 -61.23967598 30.06435504 -77.7734375 37.09765625 C-80.10578977 38.07917812 -82.43962856 39.05709864 -84.7734375 40.03515625 C-86.10375 40.60556641 -86.10375 40.60556641 -87.4609375 41.1875 C-95.63543037 44.40482574 -105.96317059 44.56965049 -114.34765625 42.00390625 C-121.52444039 38.61812101 -126.33828904 34.5251989 -130.1484375 27.59765625 C-130.96737263 24.32191573 -131.02250173 21.46002341 -130.7734375 18.09765625 C-128.7734375 15.09765625 -128.7734375 15.09765625 -125.98681641 14.23632812 C-124.79491699 14.01525391 -123.60301758 13.79417969 -122.375 13.56640625 C-121.71529205 13.44366333 -121.05558411 13.32092041 -120.37588501 13.19445801 C-111.684914 11.63675514 -102.91297781 10.63696196 -94.1484375 9.59765625 C-90.5894758 9.16706361 -87.0310357 8.73225014 -83.47265625 8.296875 C-82.18730736 8.14027657 -82.18730736 8.14027657 -80.87599182 7.98051453 C-74.55816778 7.20651658 -68.25654398 6.34865479 -61.9609375 5.41015625 C-48.5975591 3.44172831 -35.2320479 2.02192787 -21.73364258 1.43896484 C-18.82249852 1.30726943 -16.00765564 1.14300843 -13.14331055 0.58837891 C-8.74132046 -0.05264117 -4.44178706 -0.02582464 0 0 Z " fill="#151B23" transform="translate(1375.7734375,146.90234375)"/>
<path d="M0 0 C2.0452154 1.81989506 3.06169663 3.50526849 3.8828125 6.10546875 C1.86157184 13.17981106 -6.51050958 17.88657993 -11.9765625 22.27734375 C-14.9421904 24.79411986 -17.64869554 27.44983983 -20.3671875 30.23046875 C-24.75902727 34.70989507 -29.31558225 38.76209618 -34.23828125 42.6484375 C-35.951657 44.00539036 -37.63397554 45.4028064 -39.27734375 46.84375 C-40.02886719 47.48699219 -40.78039063 48.13023438 -41.5546875 48.79296875 C-42.19792969 49.36144531 -42.84117188 49.92992187 -43.50390625 50.515625 C-49.61265971 53.65582719 -57.2843503 51.22466311 -63.6796875 49.91796875 C-73.68954293 47.95978213 -83.69724231 46.76048961 -93.85473633 45.8581543 C-99.5123714 45.310046 -104.02697809 44.80672861 -108.8671875 41.73046875 C-108.8671875 41.07046875 -108.8671875 40.41046875 -108.8671875 39.73046875 C-97.88409108 33.68768559 -86.92429179 28.23457627 -75.2421875 23.66796875 C-65.83556849 19.9380643 -59.88485781 16.05756015 -52.8671875 8.73046875 C-37.2763882 -4.00929477 -18.37342361 -12.49239053 0 0 Z " fill="#151B23" transform="translate(1374.8671875,1248.26953125)"/>
<path d="M0 0 C2.0956693 1.25321024 3.54706715 2.15730603 4.953125 4.16796875 C4.90621984 8.88193748 2.47811236 11.19574741 -0.671875 14.48046875 C-1.38972168 15.23674561 -1.38972168 15.23674561 -2.12207031 16.00830078 C-3.17915186 17.12195192 -4.23989385 18.23213667 -5.30371094 19.33935547 C-7.17902267 21.30659424 -9.02490896 23.29868288 -10.8671875 25.296875 C-12.17692665 26.71238458 -13.48682097 28.12775059 -14.796875 29.54296875 C-15.40998535 30.20852783 -16.0230957 30.87408691 -16.65478516 31.55981445 C-24.07475157 39.51206109 -31.3747364 44.73224097 -41.046875 49.79296875 C-43.15137127 50.90953523 -45.25554628 52.02670747 -47.359375 53.14453125 C-48.84050781 53.92038574 -48.84050781 53.92038574 -50.3515625 54.71191406 C-52.62724355 55.94127654 -54.79824122 57.25074291 -56.984375 58.62890625 C-60.57898135 60.43537934 -61.29390972 60.25458469 -65.046875 59.16796875 C-67.21907887 58.21971021 -69.36315253 57.20583012 -71.484375 56.1484375 C-72.08693115 55.84859451 -72.6894873 55.54875153 -73.31030273 55.23982239 C-74.57911309 54.60643401 -75.84642575 53.97003749 -77.11230469 53.33081055 C-79.03665636 52.36062063 -80.9670535 51.40336466 -82.8984375 50.44726562 C-84.13580201 49.82759177 -85.37279389 49.20717318 -86.609375 48.5859375 C-87.72441406 48.02672607 -88.83945313 47.46751465 -89.98828125 46.89135742 C-92.98779938 45.20125537 -95.53876741 43.52807698 -98.046875 41.16796875 C-98.046875 40.17796875 -98.046875 39.18796875 -98.046875 38.16796875 C-97.1703125 37.86246094 -96.29375 37.55695313 -95.390625 37.2421875 C-78.07750009 31.05859563 -60.01626749 24.40439576 -46.046875 12.16796875 C-32.14366843 0.04582656 -18.68184878 -8.29245329 0 0 Z " fill="#151B23" transform="translate(1317.046875,1223.83203125)"/>
<path d="M0 0 C4.79304943 1.82337816 6.74372497 5.25160581 9.58984375 9.38671875 C10.19038574 10.23024902 10.79092773 11.0737793 11.40966797 11.94287109 C13.34672473 14.67980951 15.25333628 17.43576276 17.15234375 20.19921875 C17.78446777 21.11687012 18.4165918 22.03452148 19.06787109 22.97998047 C22.25544746 27.61904979 25.41988703 32.27313822 28.5703125 36.9375 C31.21142986 40.83776286 33.90854627 44.68973892 36.65625 48.51538086 C44.29976197 59.15928369 51.30784302 70.1968349 58.30175781 81.27490234 C59.98854943 83.94038914 61.6885431 86.59677611 63.39453125 89.25 C64.31416383 90.69117548 65.23346401 92.13256315 66.15234375 93.57421875 C66.56758301 94.21560791 66.98282227 94.85699707 67.41064453 95.51782227 C70.15234375 99.8569479 70.15234375 99.8569479 70.15234375 103.19921875 C51.6542998 90.81674563 34.44186347 77.47899575 17.96484375 62.51171875 C14.60860177 59.46308651 11.17605785 56.55268793 7.65234375 53.69921875 C5.81773389 52.2007803 3.98440101 50.70077704 2.15234375 49.19921875 C1.22421875 48.44511719 0.29609375 47.69101562 -0.66015625 46.9140625 C-5.97747131 42.40825628 -9.22800811 39.01582485 -10.84765625 32.19921875 C-11.23953125 31.08546875 -11.63140625 29.97171875 -12.03515625 28.82421875 C-14.06173967 19.7825389 -12.8083156 14.01190996 -8.55078125 5.765625 C-6.07434517 2.03393118 -4.5713025 0.31980306 0 0 Z " fill="#151B23" transform="translate(1807.84765625,416.80078125)"/>
<path d="M0 0 C2.55337393 1.02593475 4.79387423 2.06574523 7.1875 3.375 C8.57896744 4.10504342 9.97091964 4.83416341 11.36328125 5.5625 C12.10271973 5.954375 12.8421582 6.34625 13.60400391 6.75 C16.19128501 8.09979409 18.80003145 9.39821335 21.41796875 10.6875 C22.32458252 11.13432129 23.23119629 11.58114258 24.1652832 12.04150391 C25.95087151 12.92022121 27.73715154 13.7975345 29.52416992 14.67333984 C30.33861572 15.07762207 31.15306152 15.4819043 31.9921875 15.8984375 C32.71776855 16.25599121 33.44334961 16.61354492 34.19091797 16.98193359 C36 18 36 18 38 20 C40.12132874 32.78307191 32.90224561 43.0717699 26 53 C25.01044686 54.34110491 24.01555527 55.67847616 23 57 C17.46834747 55.56554973 13.69056036 52.87007388 9.25 49.4375 C8.19655396 48.6316748 8.19655396 48.6316748 7.12182617 47.80957031 C-11.53194981 33.40415057 -11.53194981 33.40415057 -15 23 C-15.85244162 14.8896269 -15.18495567 8.51405699 -10 2 C-6.23348882 -0.51100746 -4.4745013 -0.39959202 0 0 Z " fill="#151B23" transform="translate(1380,831)"/>
<path d="M0 0 C5.52099699 0.08161209 10.78319606 0.66114663 16.21704102 1.61865234 C22.39504437 2.66151783 28.55248335 3.55482183 34.77954102 4.24365234 C40.61952146 4.9369297 45.68694314 6.09566747 51.15454102 8.24365234 C49.55045696 13.24061723 46.60112283 16.99384603 43.46704102 21.11865234 C42.71003906 22.14152344 42.71003906 22.14152344 41.93774414 23.18505859 C38.35906673 27.93551534 34.46058772 32.14642843 30.15454102 36.24365234 C29.28829102 37.06865234 28.42204102 37.89365234 27.52954102 38.74365234 C25.15454102 40.24365234 25.15454102 40.24365234 22.92407227 40.02490234 C12.01937863 36.94882515 0.2617666 30.20847783 -5.59155273 20.28271484 C-7.42181713 15.84674694 -7.44463891 11.96613626 -6.84545898 7.24365234 C-5.39976395 4.08940864 -3.73962526 0.49373542 0 0 Z " fill="#151B23" transform="translate(1340.845458984375,889.75634765625)"/>
</svg>
